<svg width="471" height="250" viewBox="0 0 471 250" fill="none" xmlns="http://www.w3.org/2000/svg">
<path d="M5.35063 29.7217C5.35776 26.9984 7.54299 24.7816 10.2659 24.7355L181.122 21.8405C183.806 21.795 186.047 23.8772 186.199 26.5574L198.216 239.012C198.375 241.82 196.187 244.207 193.375 244.292L9.93853 249.844C7.11399 249.929 4.77988 247.659 4.78728 244.833L5.35063 29.7217Z" fill="black"/>
<path d="M14.9199 33.0613C14.9645 30.3321 17.1897 28.143 19.9193 28.143H186.186C188.879 28.143 191.088 30.2766 191.183 32.9684L198.32 237.325C198.418 240.154 196.152 242.5 193.323 242.5H16.5826C13.7892 242.5 11.5376 240.211 11.5832 237.418L14.9199 33.0613Z" fill="#FFAE12"/>
<path d="M47.0002 70C64.6188 137.957 140.127 133.553 157.116 70" stroke="black" stroke-width="8" stroke-linecap="round"/>
<path d="M248.216 60.088V67.192H219.128V89.752H242.744V96.856H219.128V127H210.392V60.088H248.216ZM289.103 127.672C282.895 127.672 277.231 126.232 272.111 123.352C266.991 120.408 262.927 116.344 259.919 111.16C256.975 105.912 255.503 100.024 255.503 93.496C255.503 86.968 256.975 81.112 259.919 75.928C262.927 70.68 266.991 66.616 272.111 63.736C277.231 60.792 282.895 59.32 289.103 59.32C295.375 59.32 301.071 60.792 306.191 63.736C311.311 66.616 315.343 70.648 318.287 75.832C321.231 81.016 322.703 86.904 322.703 93.496C322.703 100.088 321.231 105.976 318.287 111.16C315.343 116.344 311.311 120.408 306.191 123.352C301.071 126.232 295.375 127.672 289.103 127.672ZM289.103 120.088C293.775 120.088 297.967 119 301.679 116.824C305.455 114.648 308.399 111.544 310.511 107.512C312.687 103.48 313.775 98.808 313.775 93.496C313.775 88.12 312.687 83.448 310.511 79.48C308.399 75.448 305.487 72.344 301.775 70.168C298.063 67.992 293.839 66.904 289.103 66.904C284.367 66.904 280.143 67.992 276.431 70.168C272.719 72.344 269.775 75.448 267.599 79.48C265.487 83.448 264.431 88.12 264.431 93.496C264.431 98.808 265.487 103.48 267.599 107.512C269.775 111.544 272.719 114.648 276.431 116.824C280.207 119 284.431 120.088 289.103 120.088ZM364.572 127.672C358.364 127.672 352.7 126.232 347.58 123.352C342.46 120.408 338.396 116.344 335.388 111.16C332.444 105.912 330.972 100.024 330.972 93.496C330.972 86.968 332.444 81.112 335.388 75.928C338.396 70.68 342.46 66.616 347.58 63.736C352.7 60.792 358.364 59.32 364.572 59.32C370.844 59.32 376.54 60.792 381.66 63.736C386.78 66.616 390.812 70.648 393.756 75.832C396.7 81.016 398.172 86.904 398.172 93.496C398.172 100.088 396.7 105.976 393.756 111.16C390.812 116.344 386.78 120.408 381.66 123.352C376.54 126.232 370.844 127.672 364.572 127.672ZM364.572 120.088C369.244 120.088 373.436 119 377.148 116.824C380.924 114.648 383.868 111.544 385.98 107.512C388.156 103.48 389.244 98.808 389.244 93.496C389.244 88.12 388.156 83.448 385.98 79.48C383.868 75.448 380.956 72.344 377.244 70.168C373.532 67.992 369.308 66.904 364.572 66.904C359.836 66.904 355.612 67.992 351.9 70.168C348.188 72.344 345.244 75.448 343.068 79.48C340.956 83.448 339.9 88.12 339.9 93.496C339.9 98.808 340.956 103.48 343.068 107.512C345.244 111.544 348.188 114.648 351.9 116.824C355.676 119 359.9 120.088 364.572 120.088ZM430.537 60.088C437.833 60.088 444.137 61.464 449.449 64.216C454.825 66.904 458.921 70.776 461.737 75.832C464.617 80.888 466.057 86.84 466.057 93.688C466.057 100.536 464.617 106.488 461.737 111.544C458.921 116.536 454.825 120.376 449.449 123.064C444.137 125.688 437.833 127 430.537 127H409.705V60.088H430.537ZM430.537 119.8C439.177 119.8 445.769 117.528 450.313 112.984C454.857 108.376 457.129 101.944 457.129 93.688C457.129 85.368 454.825 78.872 450.217 74.2C445.673 69.528 439.113 67.192 430.537 67.192H418.441V119.8H430.537Z" fill="black"/>
<path d="M255.9 206.63C251.52 206.63 247.56 205.88 244.02 204.38C240.54 202.88 237.78 200.72 235.74 197.9C233.7 195.08 232.65 191.75 232.59 187.91H246.09C246.27 190.49 247.17 192.53 248.79 194.03C250.47 195.53 252.75 196.28 255.63 196.28C258.57 196.28 260.88 195.59 262.56 194.21C264.24 192.77 265.08 190.91 265.08 188.63C265.08 186.77 264.51 185.24 263.37 184.04C262.23 182.84 260.79 181.91 259.05 181.25C257.37 180.53 255.03 179.75 252.03 178.91C247.95 177.71 244.62 176.54 242.04 175.4C239.52 174.2 237.33 172.43 235.47 170.09C233.67 167.69 232.77 164.51 232.77 160.55C232.77 156.83 233.7 153.59 235.56 150.83C237.42 148.07 240.03 145.97 243.39 144.53C246.75 143.03 250.59 142.28 254.91 142.28C261.39 142.28 266.64 143.87 270.66 147.05C274.74 150.17 276.99 154.55 277.41 160.19H263.55C263.43 158.03 262.5 156.26 260.76 154.88C259.08 153.44 256.83 152.72 254.01 152.72C251.55 152.72 249.57 153.35 248.07 154.61C246.63 155.87 245.91 157.7 245.91 160.1C245.91 161.78 246.45 163.19 247.53 164.33C248.67 165.41 250.05 166.31 251.67 167.03C253.35 167.69 255.69 168.47 258.69 169.37C262.77 170.57 266.1 171.77 268.68 172.97C271.26 174.17 273.48 175.97 275.34 178.37C277.2 180.77 278.13 183.92 278.13 187.82C278.13 191.18 277.26 194.3 275.52 197.18C273.78 200.06 271.23 202.37 267.87 204.11C264.51 205.79 260.52 206.63 255.9 206.63Z" fill="#FFAE12"/>
<path d="M320.73 194.03H295.71L291.57 206H278.34L300.93 143.09H315.6L338.19 206H324.87L320.73 194.03ZM317.31 183.95L308.22 157.67L299.13 183.95H317.31Z" fill="#FFAE12"/>
<path d="M387.64 143.18L364.6 206H349.3L326.26 143.18H339.76L357.04 193.13L374.23 143.18H387.64Z" fill="#FFAE12"/>
<path d="M403.81 153.35V169.1H424.96V179.09H403.81V195.74H427.66V206H391.21V143.09H427.66V153.35H403.81Z" fill="#FFAE12"/>
</svg>
